<svg width="1299" height="494" viewBox="0 0 1299 494" fill="none" xmlns="http://www.w3.org/2000/svg">
<path d="M208.986 449.223L234.219 446.571C232.504 455.608 228.521 463.943 222.269 471.575C212.149 484.161 199.065 491.297 183.018 492.983C166.971 494.67 152.655 490.453 140.07 480.333C127.554 470.126 120.452 457 118.766 440.953C117.079 424.906 121.3 410.629 131.429 398.121C141.635 385.605 154.761 378.504 170.808 376.817C186.855 375.13 201.133 379.351 213.641 389.48C221.351 395.724 227.027 403.122 230.669 411.674L205.436 414.326C203.616 411.931 201.461 409.688 198.968 407.599C191.437 401.572 182.865 399.063 173.253 400.073C163.64 401.084 155.781 405.358 149.676 412.897C143.563 420.359 141.016 428.935 142.035 438.625C143.045 448.237 147.319 456.096 154.858 462.201C162.397 468.306 170.973 470.853 180.586 469.843C190.199 468.833 198.057 464.558 204.162 457.019C206.174 454.535 207.782 451.936 208.986 449.223Z" fill="#F4F6F7"/>
<path d="M325.977 477.958C309.93 479.644 295.614 475.427 283.029 465.307C270.513 455.101 263.412 441.974 261.725 425.927C260.039 409.88 264.26 395.603 274.388 383.095C284.594 370.579 297.721 363.478 313.768 361.791C329.815 360.105 344.092 364.326 356.6 374.454C369.108 384.583 376.205 397.671 377.891 413.718C379.578 429.765 375.361 444.081 365.241 456.666C355.112 469.174 342.024 476.271 325.977 477.958ZM323.545 454.817C333.158 453.807 341.017 449.532 347.122 441.993C353.227 434.455 355.774 425.879 354.763 416.266C353.745 406.576 349.47 398.717 341.94 392.69C334.401 386.585 325.825 384.038 316.212 385.048C306.599 386.058 298.741 390.333 292.636 397.872C286.523 405.333 283.975 413.909 284.994 423.599C286.004 433.212 290.279 441.071 297.818 447.176C305.357 453.28 313.933 455.828 323.545 454.817Z" fill="#F4F6F7"/>
<path d="M452.022 414.979L425.949 389.503L434.064 466.715L410.808 469.159L398.586 352.877L422.075 350.408L460.889 387.477L491.263 343.136L514.752 340.667L526.974 456.95L503.718 459.394L495.602 382.182L475.279 412.534L480.461 461.838L457.204 464.283L452.022 414.979Z" fill="#F4F6F7"/>
<path d="M594.982 399.953L568.908 374.478L577.024 451.689L553.767 454.134L541.545 337.851L565.034 335.382L603.848 372.451L634.223 328.11L657.712 325.641L669.933 441.924L646.677 444.368L638.562 367.157L618.238 397.509L623.42 446.813L600.164 449.257L594.982 399.953Z" fill="#F4F6F7"/>
<path d="M717.539 413.407L758.238 409.129L748.46 316.103L771.717 313.659L783.939 429.942L696.727 439.108L684.505 322.825L707.761 320.381L717.539 413.407Z" fill="#F4F6F7"/>
<path d="M825.661 345.258L834.008 424.679L810.752 427.123L798.53 310.841L821.786 308.396L873.188 350.021L868.299 303.508L891.556 301.063L903.778 417.346L880.521 419.79L877.062 386.882L825.661 345.258Z" fill="#F4F6F7"/>
<path d="M988.082 290.918L990.526 314.175L967.27 316.619L974.603 386.388L997.859 383.944L1000.3 407.201L930.534 414.534L928.09 391.277L951.346 388.833L944.013 319.063L920.757 321.508L918.312 298.251L988.082 290.918Z" fill="#F4F6F7"/>
<path d="M1075.36 305.259L1085.13 398.285L1061.88 400.729L1052.1 307.703L1011.4 311.981L1008.96 288.724L1113.61 277.725L1116.05 300.981L1075.36 305.259Z" fill="#F4F6F7"/>
<path d="M1177.38 347.441L1128.74 276.134L1154.9 273.385L1186.17 319.241L1207.23 267.885L1233.39 265.135L1200.64 344.996L1204.92 385.695L1181.66 388.139L1177.38 347.441Z" fill="#F4F6F7"/>
<path d="M28.248 159.997L45.7624 159.079L42.0909 89.0212L1.22386 91.163L0 67.8104L87.5721 63.221L88.796 86.5735L65.4434 87.7974L70.3388 181.208L6.11928 184.573L3.97753 143.706L27.3301 142.482L28.248 159.997Z" fill="#F4F6F7"/>
<path d="M178.991 175.396C162.877 176.241 148.801 171.28 136.763 160.515C124.799 149.668 118.394 136.188 117.55 120.075C116.705 103.961 121.667 89.9244 132.437 77.9639C143.284 65.9993 156.764 59.5947 172.877 58.7503C188.991 57.9058 203.028 62.8683 214.988 73.6376C226.949 84.4069 233.351 97.8482 234.196 113.961C235.04 130.075 230.08 144.151 219.314 156.189C208.545 168.149 195.104 174.552 178.991 175.396ZM177.773 152.161C187.425 151.655 195.497 147.797 201.988 140.588C208.479 133.379 211.472 124.948 210.966 115.296C210.456 105.566 206.598 97.4939 199.393 91.0807C192.184 84.5896 183.754 81.597 174.101 82.1029C164.449 82.6087 156.377 86.4662 149.886 93.6753C143.391 100.807 140.398 109.237 140.908 118.967C141.414 128.62 145.272 136.692 152.481 143.183C159.69 149.674 168.12 152.666 177.773 152.161Z" fill="#F4F6F7"/>
<path d="M328.104 50.6152L329.327 73.9678L305.975 75.1917L309.646 145.249L332.999 144.025L334.223 167.378L264.165 171.05L262.941 147.697L286.294 146.473L282.622 76.4155L259.27 77.6394L258.046 54.2868L328.104 50.6152Z" fill="#F4F6F7"/>
<path d="M380.194 85.0008L384.374 164.75L361.021 165.974L354.902 49.2108L378.255 47.9869L427.407 92.2444L424.96 45.5392L448.312 44.3154L454.432 161.078L431.079 162.302L429.347 129.258L380.194 85.0008Z" fill="#F4F6F7"/>
<path d="M999.758 132.005C983.645 132.85 969.569 127.89 957.531 117.124C945.566 106.277 939.162 92.797 938.317 76.6837C937.473 60.5704 942.435 46.5335 953.205 34.573C964.052 22.6084 977.532 16.2039 993.645 15.3594C1009.76 14.5149 1023.8 19.4774 1035.76 30.2467C1047.72 41.016 1054.12 54.4573 1054.96 70.5705C1055.81 86.6838 1050.85 100.76 1040.08 112.798C1029.31 124.759 1015.87 131.161 999.758 132.005ZM998.541 108.77C1008.19 108.264 1016.26 104.406 1022.76 97.1973C1029.25 89.9882 1032.24 81.5574 1031.73 71.905C1031.22 62.1748 1027.37 54.1031 1020.16 47.6898C1012.95 41.1987 1004.52 38.2061 994.869 38.712C985.217 39.2178 977.145 43.0753 970.654 50.2844C964.159 57.4156 961.166 65.8464 961.676 75.5766C962.182 85.229 966.039 93.3007 973.248 99.7918C980.457 106.283 988.888 109.276 998.541 108.77Z" fill="#F4F6F7"/>
<path d="M1107.06 103.082L1147.93 100.941L1143.03 7.5303L1166.39 6.30645L1172.51 123.069L1084.93 127.659L1078.81 10.8959L1102.17 9.67205L1107.06 103.082Z" fill="#F4F6F7"/>
<path d="M1229.56 26.4122L1230.79 49.7648L1265.81 47.929L1264.59 24.5764L1229.56 26.4122ZM1237.5 72.8297L1232.01 73.1173L1234.46 119.822L1211.11 121.046L1206.21 27.6361L1194.53 28.248L1193.31 4.89542L1286.72 0L1290.39 70.0577L1266.22 71.3244L1298.33 116.475L1269.6 117.981L1237.5 72.8297Z" fill="#F4F6F7"/>
</svg>
