<svg width="149" height="149" viewBox="0 0 149 149" fill="none" xmlns="http://www.w3.org/2000/svg">
<rect width="135" height="135" transform="translate(0 14.1113) rotate(-6)" fill="#4AA0EB"/>
<path d="M88.9416 48.7537C87.7319 49.4506 86.4086 49.9731 84.9958 50.2946C86.3651 49.2658 87.3399 47.7623 87.694 46.0546C86.4134 47.0084 84.9609 47.7563 83.3819 48.244C81.9472 47.0045 80.019 46.3384 77.9848 46.5522C74.0784 46.9628 71.2448 50.4635 71.6552 54.3687C71.7135 54.923 71.834 55.4573 72.0075 55.9606C66.0983 56.284 60.591 54.0153 56.651 50.1017C56.1535 51.2104 55.9324 52.4617 56.0689 53.7599C56.3267 56.213 57.8021 58.2473 59.8329 59.3155C58.67 59.4002 57.5452 59.1967 56.5362 58.7678C56.5394 58.7983 56.5424 58.8261 56.5456 58.8566C56.9058 62.2844 59.6436 64.8872 62.9485 65.1954C62.3728 65.4195 61.756 65.5715 61.1102 65.6393C60.6554 65.6871 60.2064 65.6887 59.767 65.6532C60.9627 68.3684 63.79 70.1399 66.8909 69.8716C64.6704 72.0235 61.7394 73.4752 58.4243 73.8236C57.8541 73.8835 57.2871 73.9096 56.7258 73.9016C60.0675 75.5788 63.9074 76.359 67.9027 75.9391C80.9137 74.5716 86.8937 63.046 85.9113 53.6988C85.8791 53.3925 85.8404 53.0882 85.7952 52.786C87.0733 51.6421 88.1425 50.2708 88.9416 48.7537Z" fill="white"/>
<path d="M54.6517 107.41L53.6516 97.8942L50.3736 98.2388L50.1863 96.4566L58.6199 95.5702L58.8072 97.3523L55.5133 97.6985L56.5135 107.214L54.6517 107.41ZM66.9838 106.114L64.6932 101.158L63.499 106.48L61.8441 106.654L58.3346 98.9787L60.1804 98.7847L62.476 104.094L63.7289 98.4117L65.0655 98.2712L67.4406 103.572L68.614 97.8983L70.4757 97.7026L68.6387 105.94L66.9838 106.114ZM72.4778 95.7385C72.1595 95.772 71.872 95.6896 71.6152 95.4914C71.3573 95.2825 71.211 95.0136 71.1765 94.6848C71.143 94.3665 71.2313 94.0838 71.4413 93.8365C71.6501 93.5786 71.9137 93.4329 72.2319 93.3994C72.5608 93.3649 72.8488 93.4526 73.0961 93.6625C73.3423 93.8619 73.4821 94.1207 73.5156 94.4389C73.5502 94.7678 73.4683 95.0606 73.2701 95.3174C73.0707 95.5636 72.8066 95.704 72.4778 95.7385ZM72.6211 105.521L71.7849 97.565L73.5352 97.381L74.3715 105.337L72.6211 105.521ZM86.1042 104.184C85.298 104.269 84.6169 104.116 84.0609 103.724C83.5143 103.32 83.1959 102.688 83.1056 101.829L82.7025 97.9941L81.3023 98.1413L81.1384 96.5819L82.5386 96.4347L82.3062 94.2229L84.0565 94.0389L84.289 96.2507L86.5645 96.0116L86.7284 97.571L84.4529 97.8102L84.8259 101.359C84.8771 101.847 85.0195 102.18 85.2528 102.359C85.4862 102.539 85.8362 102.604 86.303 102.555C86.7061 102.512 87.014 102.432 87.2268 102.313L87.3907 103.872C87.021 104.029 86.5922 104.133 86.1042 104.184ZM80.1848 104.807C79.3786 104.891 78.6975 104.738 78.1415 104.346C77.5949 103.942 77.2765 103.31 77.1862 102.451L76.7831 98.6163L75.1283 98.7902L74.9644 97.2308L76.6192 97.0569L76.3868 94.845L78.1371 94.6611L78.3696 96.8729L80.295 96.6705L80.4589 98.2299L78.5335 98.4323L78.9065 101.981C78.9578 102.469 79.1001 102.802 79.3334 102.982C79.5668 103.161 79.9168 103.226 80.3836 103.177C80.7867 103.135 81.0946 103.054 81.3074 102.935L81.4713 104.494C81.1016 104.651 80.6728 104.755 80.1848 104.807ZM92.4864 103.594C91.2983 103.719 90.2816 103.434 89.4364 102.74C88.5901 102.036 88.104 101.084 87.978 99.885C87.852 98.6863 88.1249 97.6602 88.7967 96.8066C89.4674 95.9424 90.4127 95.4462 91.6326 95.318C92.8632 95.1887 93.9002 95.5141 94.7437 96.2942C95.5861 97.0637 96.0351 98.1212 96.0907 99.4667L89.7576 100.132C89.8435 100.745 90.1309 101.235 90.6199 101.602C91.109 101.969 91.6983 102.116 92.3878 102.044C93.3638 101.941 93.993 101.5 94.2757 100.719L96.1056 100.527C95.943 101.327 95.5431 102.013 94.906 102.584C94.2689 103.155 93.4623 103.492 92.4864 103.594ZM91.7387 96.787C91.1659 96.8472 90.6899 97.0635 90.3107 97.4358C89.9411 97.7964 89.7291 98.2799 89.6749 98.8862L94.0826 98.4229C93.8906 97.821 93.5822 97.3869 93.1574 97.1205C92.7314 96.8435 92.2585 96.7323 91.7387 96.787ZM98.2611 102.826L97.4249 94.8701L99.1753 94.6861L99.3241 96.1023C99.4258 95.6412 99.6584 95.2521 100.022 94.935C100.396 94.6168 100.811 94.4338 101.267 94.3858C101.543 94.3568 101.773 94.3541 101.958 94.3775L102.147 96.1756C101.883 96.1069 101.586 96.0898 101.257 96.1244C100.727 96.1802 100.299 96.445 99.973 96.919C99.6463 97.3823 99.5231 97.9959 99.6034 98.7597L100.011 102.642L98.2611 102.826Z" fill="white"/>
</svg>
