<svg width="149" height="149" viewBox="0 0 149 149" fill="none" xmlns="http://www.w3.org/2000/svg">
<rect width="135" height="135" transform="translate(0 14.1113) rotate(-6)" fill="#F83641"/>
<path d="M84.5623 51.6359C84.3844 51.1552 83.9872 50.8199 83.5658 50.7485C82.82 50.6208 79.2406 50.5278 71.7817 51.3117C64.3228 52.0957 60.8444 52.9305 60.1348 53.2112C59.7422 53.3664 59.4234 53.777 59.3479 54.286C59.241 55.0078 59.0782 58.0029 59.5667 62.6506C60.0552 67.2984 60.837 70.1925 61.0919 70.8796C61.2696 71.3587 61.6669 71.694 62.0865 71.7639C62.8374 71.8927 66.4134 71.9861 73.8723 71.2022C81.3312 70.4182 84.8113 69.5832 85.5192 69.3026C85.9118 69.1474 86.2306 68.7368 86.3062 68.2278C86.413 67.506 86.5751 64.5043 86.0873 59.8632C85.5995 55.2221 84.817 52.3214 84.5623 51.6359ZM87.6864 50.4746C88.7543 53.3488 89.4024 59.5148 89.4024 59.5148C89.4024 59.5148 90.0505 65.6808 89.6034 68.7142C89.354 70.3911 88.2575 71.8051 86.7434 72.4033C83.9936 73.4901 74.2207 74.5172 74.2207 74.5172C74.2207 74.5172 64.4529 75.5439 61.5322 75.0531C59.9195 74.7769 58.5548 73.6232 57.9677 72.0392C56.8997 69.1651 56.2517 62.9991 56.2517 62.9991C56.2517 62.9991 55.6036 56.833 56.0506 53.7997C56.3 52.1228 57.3966 50.7087 58.9107 50.1105C61.6654 49.0233 71.4333 47.9966 71.4333 47.9966C71.4333 47.9966 81.2061 46.9695 84.1218 47.4607C85.7345 47.737 87.0992 48.8907 87.6864 50.4746ZM70.1217 67.4067L68.9022 55.804L79.4572 60.5601L70.1217 67.4067Z" fill="white"/>
<path d="M50.5861 107.837L50.0844 103.063L45.1183 96.9891L47.2982 96.7599L50.8133 101.12L53.3609 96.1227L55.5568 95.8919L51.9478 102.883L52.4479 107.641L50.5861 107.837ZM62.6121 105.527C61.9001 106.406 60.9553 106.908 59.7778 107.032C58.6003 107.156 57.5666 106.862 56.6768 106.151C55.7964 105.428 55.2955 104.489 55.1739 103.333C55.0524 102.176 55.3476 101.159 56.0596 100.279C56.7811 99.3884 57.7306 98.8811 58.9081 98.7573C60.0856 98.6336 61.1146 98.933 61.9949 99.6556C62.8848 100.366 63.3905 101.3 63.512 102.456C63.6335 103.613 63.3336 104.636 62.6121 105.527ZM59.6072 105.409C60.2967 105.336 60.8392 105.038 61.2346 104.514C61.6394 103.978 61.8045 103.354 61.7298 102.644C61.6551 101.933 61.3646 101.363 60.8583 100.933C60.3614 100.492 59.7683 100.308 59.0787 100.38C58.3786 100.454 57.8261 100.759 57.4212 101.295C57.0258 101.819 56.8655 102.436 56.9402 103.147C57.0149 103.858 57.3007 104.434 57.7975 104.875C58.3038 105.304 58.9071 105.482 59.6072 105.409ZM68.5556 106.109C67.6433 106.205 66.8901 105.979 66.2962 105.43C65.7011 104.87 65.35 104.081 65.243 103.063L64.7429 98.3049L66.4933 98.121L66.9632 102.592C67.0301 103.229 67.221 103.718 67.5359 104.061C67.8496 104.392 68.261 104.531 68.7702 104.478C69.3643 104.415 69.8129 104.143 70.1162 103.661C70.4183 103.168 70.5253 102.502 70.4373 101.664L70.0258 97.7497L71.7762 97.5657L72.6124 105.522L70.8621 105.706L70.7483 104.624C70.3685 105.5 69.6376 105.995 68.5556 106.109ZM76.0339 105.162L75.0338 95.6467L71.7559 95.9912L71.5686 94.209L80.0021 93.3226L80.1894 95.1048L76.8956 95.451L77.8957 104.967L76.0339 105.162ZM84.2193 104.463C83.307 104.559 82.5539 104.332 81.9599 103.783C81.3648 103.224 81.0138 102.435 80.9067 101.416L80.4067 96.6586L82.157 96.4746L82.627 100.946C82.6939 101.583 82.8847 102.072 83.1996 102.414C83.5133 102.746 83.9248 102.885 84.434 102.831C85.028 102.769 85.4767 102.497 85.7799 102.014C86.082 101.521 86.1891 100.856 86.101 100.018L85.6896 96.1034L87.4399 95.9194L88.2761 103.876L86.5258 104.06L86.4121 102.977C86.0323 103.854 85.3013 104.349 84.2193 104.463ZM94.9603 103.334C94.4192 103.391 93.9031 103.327 93.4118 103.143C92.93 102.947 92.5493 102.692 92.2696 102.378L92.3816 103.444L90.6313 103.628L89.3769 91.6938L91.1273 91.5098L91.6575 96.554C91.8658 96.1889 92.1858 95.8657 92.6174 95.5844C93.0585 95.2913 93.5496 95.1164 94.0906 95.0595C95.1726 94.9458 96.122 95.2535 96.9387 95.9828C97.766 96.711 98.2399 97.648 98.3603 98.7936C98.4807 99.9393 98.212 100.954 97.5542 101.839C96.9069 102.722 96.0423 103.22 94.9603 103.334ZM94.4748 101.776C95.1643 101.704 95.7062 101.4 96.1005 100.865C96.4947 100.33 96.6539 99.7023 96.5781 98.981C96.5023 98.2596 96.216 97.6783 95.7191 97.2372C95.2223 96.796 94.6291 96.6117 93.9396 96.6842C93.2394 96.7578 92.6922 97.062 92.298 97.5968C91.9037 98.1316 91.7445 98.7597 91.8203 99.481C91.8961 100.202 92.1825 100.784 92.6793 101.225C93.1761 101.666 93.7746 101.85 94.4748 101.776ZM104.094 102.374C102.906 102.499 101.89 102.214 101.044 101.52C100.198 100.815 99.7119 99.8636 99.5859 98.6648C99.4599 97.4661 99.7328 96.4399 100.405 95.5864C101.075 94.7222 102.021 94.226 103.241 94.0978C104.471 93.9685 105.508 94.2938 106.352 95.0739C107.194 95.8434 107.643 96.901 107.699 98.2465L101.366 98.9122C101.451 99.5252 101.739 100.015 102.228 100.382C102.717 100.749 103.306 100.896 103.996 100.824C104.972 100.721 105.601 100.28 105.884 99.4991L107.714 99.3068C107.551 100.107 107.151 100.792 106.514 101.363C105.877 101.934 105.07 102.271 104.094 102.374ZM103.347 95.5667C102.774 95.627 102.298 95.8432 101.919 96.2156C101.549 96.5762 101.337 97.0597 101.283 97.666L105.691 97.2027C105.499 96.6008 105.19 96.1667 104.765 95.9003C104.339 95.6233 103.866 95.5121 103.347 95.5667Z" fill="white"/>
</svg>
