<svg width="938" height="229" viewBox="0 0 938 229" fill="none" xmlns="http://www.w3.org/2000/svg">
<path d="M6.65692 228.707C7.04742 229.098 7.6806 229.098 8.07111 228.707L14.4351 222.343C14.8256 221.953 14.8256 221.32 14.4351 220.929C14.0446 220.539 13.4114 220.539 13.0209 220.929L7.36401 226.586L1.70715 220.929C1.31665 220.539 0.683471 220.539 0.292968 220.929C-0.0975958 221.32 -0.0975957 221.953 0.292968 222.343L6.65692 228.707ZM6.36401 160.974L6.36401 228L8.36401 228L8.36401 160.974L6.36401 160.974ZM935.364 4.58638e-05L935.364 135.026L937.364 135.026L937.364 4.56889e-05L935.364 4.58638e-05ZM923.39 147L20.3377 147L20.3377 149L923.39 149L923.39 147ZM935.364 135.026C935.364 141.639 930.003 147 923.39 147L923.39 149C931.108 149 937.364 142.744 937.364 135.026L935.364 135.026ZM8.36401 160.974C8.36401 154.361 13.7248 149 20.3377 149L20.3377 147C12.6203 147 6.36401 153.256 6.36401 160.974L8.36401 160.974Z" fill="url(#paint0_linear_1_683)"/>
<defs>
<linearGradient id="paint0_linear_1_683" x1="936.364" y1="229.3" x2="7.36401" y2="229.3" gradientUnits="userSpaceOnUse">
<stop stop-color="#FF7A00"/>
<stop offset="1" stop-color="#0EC742"/>
</linearGradient>
</defs>
</svg>
