<svg width="938" height="132" viewBox="0 0 938 132" fill="none" xmlns="http://www.w3.org/2000/svg">
<path d="M6.65692 131.707C7.04742 132.098 7.6806 132.098 8.07111 131.707L14.4351 125.343C14.8256 124.953 14.8256 124.32 14.4351 123.929C14.0446 123.539 13.4114 123.539 13.0209 123.929L7.36401 129.586L1.70715 123.929C1.31665 123.539 0.683471 123.539 0.292968 123.929C-0.0975958 124.32 -0.0975957 124.953 0.292968 125.343L6.65692 131.707ZM6.36401 64.9739L6.36401 131L8.36401 131L8.36401 64.9739L6.36401 64.9739ZM935.364 4.58638e-05L935.364 39.0264L937.364 39.0264L937.364 4.56889e-05L935.364 4.58638e-05ZM923.39 51.0001L20.3377 51.0002L20.3377 53.0002L923.39 53.0001L923.39 51.0001ZM935.364 39.0264C935.364 45.6393 930.003 51.0001 923.39 51.0001L923.39 53.0001C931.108 53.0001 937.364 46.7438 937.364 39.0264L935.364 39.0264ZM8.36401 64.9739C8.36401 58.361 13.7248 53.0002 20.3377 53.0002L20.3377 51.0002C12.6203 51.0002 6.36401 57.2564 6.36401 64.9739L8.36401 64.9739Z" fill="url(#paint0_linear_1_682)"/>
<defs>
<linearGradient id="paint0_linear_1_682" x1="936.364" y1="131.75" x2="7.36401" y2="131.75" gradientUnits="userSpaceOnUse">
<stop stop-color="#00B3E7"/>
<stop offset="1" stop-color="#0EC742"/>
</linearGradient>
</defs>
</svg>
