<svg width="288" height="117" viewBox="0 0 288 117" fill="none" xmlns="http://www.w3.org/2000/svg">
<path d="M65.072 80.1118C65.6669 85.7713 64.0325 90.4263 60.1689 94.0768C56.3053 97.7273 50.0099 100.129 41.2826 101.282L42.552 113.36L34.7629 114.179L33.466 101.839C24.5239 102.071 17.7931 100.33 13.2735 96.6166C8.75394 92.9034 6.10168 87.3126 5.31674 79.8445L22.0327 78.0875C22.3516 81.1215 23.2325 83.3295 24.6755 84.7116C26.1769 86.0875 28.5858 86.8371 31.9022 86.9605L30.7064 75.5832C27.5037 74.858 24.9904 74.2373 23.1665 73.7211C21.3425 73.2049 19.2315 72.483 16.8334 71.5552C14.4291 70.5691 12.5792 69.5248 11.2835 68.4222C9.98166 67.2612 8.79505 65.7932 7.72363 64.0182C6.71056 62.237 6.08138 60.1795 5.83609 57.8457C5.29031 52.6529 6.82481 48.4508 10.4396 45.2394C14.0482 41.9696 19.513 39.8025 26.8338 38.7381L25.5552 26.5731L33.3443 25.7545L34.6413 38.0945C42.3059 38.0558 48.2982 39.7855 52.6182 43.2838C56.9905 46.7176 59.4954 51.4685 60.1332 57.5364L43.4173 59.2933C43.0003 55.3258 40.5931 53.1897 36.1959 52.885L37.1801 62.2494C40.1433 62.9408 42.566 63.5415 44.4483 64.0516C46.3889 64.5555 48.7426 65.3404 51.5091 66.4064C54.2696 67.4141 56.4788 68.5091 58.1368 69.6916C59.8471 70.8097 61.3577 72.2731 62.6686 74.082C64.0379 75.8847 64.839 77.8947 65.072 80.1118ZM22.6256 56.7889C22.6869 57.3723 22.7913 57.8038 22.9386 58.0833C23.1443 58.3566 23.7093 58.6806 24.6335 59.0554C25.5578 59.4302 27.0485 59.8634 29.1059 60.355L28.3792 53.4411C24.3718 54.0393 22.4539 55.1552 22.6256 56.7889ZM39.7373 86.5794C43.2319 86.1531 45.5642 85.613 46.7343 84.9592C47.9627 84.2991 48.5217 83.444 48.4113 82.3938C48.3009 81.3436 47.4735 80.4867 45.929 79.8232C44.3784 79.1013 41.9987 78.3486 38.7899 77.5651L39.7373 86.5794ZM73.2735 65.8001C72.2862 56.4065 74.5199 48.4736 79.9745 42.0013C85.4231 35.4706 92.6983 31.727 101.8 30.7704C109.618 29.9486 116.672 31.3899 122.96 35.0942C129.248 38.7985 133.209 43.9273 134.841 50.4806L118.126 52.2375C117.113 49.3355 115.433 47.3883 113.087 46.3961C110.794 45.3394 107.546 45.0318 103.346 45.4734C98.3862 45.9946 94.7578 47.6737 92.4604 50.5108C90.1631 53.3478 89.3394 57.8586 89.9894 64.0432C90.6456 70.2861 92.1879 74.5778 94.6165 76.918C97.1035 79.2522 100.593 80.1832 105.086 79.711C108.587 79.3431 111.337 78.2872 113.336 76.5433C115.335 74.7994 116.217 72.5241 115.981 69.7174L104.604 70.9132L103.297 58.4857L136.292 55.0178C138.917 54.7419 141.039 55.2857 142.657 56.6494C144.269 57.9547 145.216 59.9493 145.498 62.6332L148.285 89.1512L131.482 90.9173L129.32 70.3506L131.473 59.6831L127.36 60.1154C128.325 69.8652 127.067 77.8137 123.583 83.9608C120.1 90.1079 114.216 93.6168 105.931 94.4876C96.7125 95.4565 89.2064 93.3549 83.4127 88.1829C77.6712 82.9463 74.2915 75.4854 73.2735 65.8001ZM209.172 64.9662C209.786 70.8008 208.018 75.5878 203.868 79.3273C199.713 83.0085 192.968 85.3397 183.633 86.3208C172.664 87.4737 164.42 86.2165 158.903 82.5491C153.444 78.8757 150.282 72.9256 149.417 64.6989L166.133 62.942C166.532 66.7344 167.89 69.2757 170.208 70.5658C172.585 71.8497 176.749 72.1789 182.7 71.5534C186.667 71.1364 189.324 70.5918 190.669 69.9195C192.014 69.2472 192.628 68.3568 192.512 67.2483C192.383 66.023 191.307 65.0448 189.283 64.3136C187.318 63.5764 184.036 62.6531 179.436 61.5438C178.29 61.3103 177.414 61.1074 176.806 60.9354C168.401 58.9872 162.739 57.3112 159.819 55.9074C153.856 53.0538 150.562 48.6513 149.936 42.7001C149.36 37.2156 151.08 32.8171 155.097 29.5043C159.114 26.1916 165.207 24.106 173.375 23.2475C182.711 22.2663 190.011 23.5341 195.277 27.051C200.537 30.5095 203.522 35.6228 204.234 42.3908L187.518 44.1477C187.211 41.2305 185.985 39.3832 183.838 38.606C181.744 37.7643 178.772 37.5458 174.921 37.9505C169.261 38.5453 166.53 39.7763 166.726 41.6433C166.824 42.5769 167.341 43.2893 168.278 43.7808C169.267 44.2078 172.181 44.9928 177.02 46.1359C177.563 46.2558 178.773 46.5415 180.649 46.9932C182.519 47.3866 183.878 47.6862 184.726 47.8921C185.573 48.0979 186.909 48.459 188.733 48.9751C190.551 49.433 191.951 49.8462 192.933 50.2148C193.974 50.5774 195.296 51.0873 196.899 51.7447C198.496 52.3438 199.739 52.9504 200.63 53.5647C201.572 54.1145 202.621 54.8302 203.775 55.7117C204.924 56.5348 205.813 57.4147 206.442 58.3514C207.124 59.2236 207.701 60.2248 208.173 61.3549C208.704 62.4788 209.037 63.6826 209.172 64.9662ZM211.217 51.3017C210.229 41.9081 212.463 33.9751 217.918 27.5029C223.366 20.9722 230.642 17.2286 239.743 16.2719C247.562 15.4502 254.615 16.8915 260.903 20.5958C267.192 24.3001 271.152 29.4289 272.785 35.9821L256.069 37.7391C255.056 34.837 253.377 32.8899 251.031 31.8977C248.737 30.841 245.49 30.5334 241.289 30.9749C236.329 31.4962 232.701 33.1753 230.404 36.0123C228.106 38.8494 227.283 43.3602 227.933 49.5448C228.589 55.7877 230.131 60.0793 232.56 62.4196C235.047 64.7538 238.537 65.6848 243.029 65.2126C246.53 64.8446 249.28 63.7887 251.279 62.0449C253.279 60.301 254.16 58.0257 253.924 55.219L242.547 56.4148L241.241 43.9873L274.235 40.5194C276.86 40.2435 278.982 40.7873 280.6 42.151C282.212 43.4563 283.159 45.4509 283.441 48.1348L286.229 74.6527L269.425 76.4188L267.263 55.8521L269.416 45.1847L265.303 45.617C266.269 55.3668 265.01 63.3152 261.527 69.4623C258.043 75.6094 252.159 79.1184 243.874 79.9892C234.656 80.9581 227.15 78.8565 221.356 73.6845C215.614 68.4479 212.235 60.987 211.217 51.3017Z" fill="#273A41"/>
</svg>
