<svg fill="none" height="100%" width="100%" viewBox="0 0 620 500" xmlns:xlink="http://www.w3.org/1999/xlink" xmlns="http://www.w3.org/2000/svg"><g id="i0"><g transform="translate(310,250)"><animateTransform repeatCount="indefinite" type="translate" attributeName="transform" dur="1s" begin="0s" calcMode="spline" values="310 250; 310 251; 310 249; 310 250; 310 251; 310 249; 310 250; 310 251; 310 249; 310 250; 310 251; 310 249; 310 250; 310 251; 310 249; 310 250; 310 251; 310 249; 310 250; 310 251; 310 249; 310 250; 310 251; 310 249; 310 250; 310 251; 310 249; 310 250; 310 251; 310 249; 310 250" keyTimes="0; 0.033333; 0.066667; 0.1; 0.133333; 0.166667; 0.2; 0.233333; 0.266667; 0.3; 0.333333; 0.366667; 0.4; 0.433333; 0.466667; 0.5; 0.533333; 0.566667; 0.6; 0.633333; 0.666667; 0.7; 0.733333; 0.766667; 0.8; 0.833333; 0.866667; 0.9; 0.933333; 0.966667; 1" keySplines="0.333 0 0.667 1; 0.333 0 0.667 1; 0.333 0 0.667 1; 0.333 0 0.667 1; 0.333 0 0.667 1; 0.333 0 0.667 1; 0.333 0 0.667 1; 0.333 0 0.667 1; 0.333 0 0.667 1; 0.333 0 0.667 1; 0.333 0 0.667 1; 0.333 0 0.667 1; 0.333 0 0.667 1; 0.333 0 0.667 1; 0.333 0 0.667 1; 0.333 0 0.667 1; 0.333 0 0.667 1; 0.333 0 0.667 1; 0.333 0 0.667 1; 0.333 0 0.667 1; 0.333 0 0.667 1; 0.333 0 0.667 1; 0.333 0 0.667 1; 0.333 0 0.667 1; 0.333 0 0.667 1; 0.333 0 0.667 1; 0.333 0 0.667 1; 0.333 0 0.667 1; 0.333 0 0.667 1; 0.333 0 0.667 1" fill="freeze" /><g transform="scale(1,1) translate(-256,-256)"><g id="i1"><g transform="translate(256,256)"><g transform="scale(1,1)"><animateTransform repeatCount="indefinite" type="scale" attributeName="transform" dur="1s" begin="0s" calcMode="spline" values="1 1; 0.8 1; 1.2 1; 1 1; 0.8 1; 1.2 1; 1 1; 0.8 1; 1.2 1; 1 1; 0.8 1; 1.2 1; 1 1; 0.8 1; 1.2 1; 1 1" keyTimes="0; 0.066667; 0.133333; 0.2; 0.266667; 0.333333; 0.4; 0.466667; 0.533333; 0.6; 0.666667; 0.733333; 0.8; 0.866667; 0.933333; 1" keySplines="0.333 0 0.667 1; 0.333 0 0.667 1; 0.333 0 0.667 1; 0.333 0 0.667 1; 0.333 0 0.667 1; 0.333 0 0.667 1; 0.333 0 0.667 1; 0.333 0 0.667 1; 0.333 0 0.667 1; 0.333 0 0.667 1; 0.333 0 0.667 1; 0.333 0 0.667 1; 0.333 0 0.667 1; 0.333 0 0.667 1; 0.333 0 0.667 1" fill="freeze" /><g transform="translate(-256,-256)"><g id="i2" transform="matrix(1,0,0,1,129.495,140.312)"><path fill="#ffdc50" d="M-127.445,-60.712C-121.195,-26.902,-98.485,91.168,-84.975,97.918C-80.495,100.158,-68.535,101.828,-52.165,102.788C-52.165,102.788,-48.38,104.982,-48.38,104.982C-48.38,104.982,-44.027,104.335,-44.027,104.335C-44.027,104.335,41.973,103.747,41.973,103.747C41.973,103.747,113.032,100.688,113.032,100.688C113.032,100.688,128.385,89.098,128.385,89.098C128.385,89.098,128.385,53.808,128.385,53.808C128.385,53.808,31.345,-104.982,-120.245,-72.072C-125.305,-70.972,-128.385,-65.802,-127.445,-60.712Z" /></g><g id="i3" transform="matrix(1,0,0,1,245.89,230.6)"><path fill="#ffdc50" d="M11.99,-1.19C11.99,-1.19,-11.99,0.01,-11.99,0.01C-11.99,0.01,2.75,0.05,2.75,0.05C2.75,0.05,2.78,1.19,2.78,1.19C6,0.44,9.07,-0.36,11.99,-1.19Z" /></g><g id="i4" transform="matrix(1,0,0,1,78.75,241.43)"><path fill="#ffdc50" d="M-1.42,1.67C-1.36,1.67,-1.3,1.68,-1.24,1.68C-0.16,0.27,0.74,-0.86,1.42,-1.68C1.42,-1.68,-1.42,1.67,-1.42,1.67Z" /></g><g id="i5" transform="matrix(1,0,0,1,133.846,161.105)"><path fill="#ffbe46" d="M87.135,-13.561C111.01,11.767,124.035,33.021,124.035,33.021C124.035,33.021,124.035,38.775,124.035,38.775C25.871,19.253,-63,40.666,-101.298,52.625C-102.956,47.476,-104.636,41.731,-106.318,35.57C-68.641,23.644,13.739,3.601,108.647,18.107C23.851,-34.994,-81.842,-28.644,-120.416,-24.047C-121.687,-30.036,-122.896,-35.881,-124.035,-41.492C-88.797,-46.08,2.94,-52.626,87.135,-13.561Z" /></g></g></g></g></g></g></g></g><g id="i0"><g transform="translate(310,250)"><animateTransform repeatCount="indefinite" type="translate" attributeName="transform" dur="1s" begin="0s" calcMode="spline" values="310 250; 310 251; 310 249; 310 250; 310 251; 310 249; 310 250; 310 251; 310 249; 310 250; 310 251; 310 249; 310 250; 310 251; 310 249; 310 250; 310 251; 310 249; 310 250; 310 251; 310 249; 310 250; 310 251; 310 249; 310 250; 310 251; 310 249; 310 250; 310 251; 310 249; 310 250" keyTimes="0; 0.033333; 0.066667; 0.1; 0.133333; 0.166667; 0.2; 0.233333; 0.266667; 0.3; 0.333333; 0.366667; 0.4; 0.433333; 0.466667; 0.5; 0.533333; 0.566667; 0.6; 0.633333; 0.666667; 0.7; 0.733333; 0.766667; 0.8; 0.833333; 0.866667; 0.9; 0.933333; 0.966667; 1" keySplines="0.333 0 0.667 1; 0.333 0 0.667 1; 0.333 0 0.667 1; 0.333 0 0.667 1; 0.333 0 0.667 1; 0.333 0 0.667 1; 0.333 0 0.667 1; 0.333 0 0.667 1; 0.333 0 0.667 1; 0.333 0 0.667 1; 0.333 0 0.667 1; 0.333 0 0.667 1; 0.333 0 0.667 1; 0.333 0 0.667 1; 0.333 0 0.667 1; 0.333 0 0.667 1; 0.333 0 0.667 1; 0.333 0 0.667 1; 0.333 0 0.667 1; 0.333 0 0.667 1; 0.333 0 0.667 1; 0.333 0 0.667 1; 0.333 0 0.667 1; 0.333 0 0.667 1; 0.333 0 0.667 1; 0.333 0 0.667 1; 0.333 0 0.667 1; 0.333 0 0.667 1; 0.333 0 0.667 1; 0.333 0 0.667 1" fill="freeze" /><g transform="scale(1,1) translate(-256,-256)"><g id="i6"><g transform="translate(256,256)"><g transform="scale(1,1)"><animateTransform repeatCount="indefinite" type="scale" attributeName="transform" dur="1s" begin="0s" calcMode="spline" values="1 1; 0.8 1; 1.2 1; 1 1; 0.8 1; 1.2 1; 1 1; 0.8 1; 1.2 1; 1 1; 0.8 1; 1.2 1; 1 1; 0.8 1; 1.2 1; 1 1" keyTimes="0; 0.066667; 0.133333; 0.2; 0.266667; 0.333333; 0.4; 0.466667; 0.533333; 0.6; 0.666667; 0.733333; 0.8; 0.866667; 0.933333; 1" keySplines="0.333 0 0.667 1; 0.333 0 0.667 1; 0.333 0 0.667 1; 0.333 0 0.667 1; 0.333 0 0.667 1; 0.333 0 0.667 1; 0.333 0 0.667 1; 0.333 0 0.667 1; 0.333 0 0.667 1; 0.333 0 0.667 1; 0.333 0 0.667 1; 0.333 0 0.667 1; 0.333 0 0.667 1; 0.333 0 0.667 1; 0.333 0 0.667 1" fill="freeze" /><g transform="translate(-256,-256)"><g id="i4" transform="matrix(1,0,0,1,150.25,340.465)"><path fill="#ffdc50" d="M-18.08,58.765C18.42,76.025,40.55,94.075,52.37,105.715C56.58,109.855,63.78,107.415,64.34,101.545C67.83,65.585,81.17,38.915,81.17,38.915C81.17,-1.025,92.24,-33.585,100.06,-51.595C100.06,-51.595,98.42,-108.675,98.42,-108.675C98.42,-108.675,98.39,-109.815,98.39,-109.815C98.39,-109.815,83.65,-109.855,83.65,-109.855C83.65,-109.855,-68.81,-102.235,-68.81,-102.235C-68.81,-102.235,-69.81,-101.045,-69.81,-101.045C-69.81,-101.045,-70.08,-100.715,-70.08,-100.715C-70.76,-99.895,-71.66,-98.765,-72.74,-97.355C-79.48,-88.505,-92.82,-68.905,-95.27,-49.305C-100.06,-10.985,-79.63,29.665,-18.08,58.765Z" /></g><g id="i5" transform="matrix(1,0,0,1,143.378,286.5)"><path fill="#ffbe46" d="M90.527,-55.89C8.275,-26.052,-54.93,32.121,-78.422,55.89C-87.641,39.165,-90.527,21.686,-88.399,4.664C-85.091,-21.802,-61.934,-48.267,-61.934,-48.267C-61.934,-48.267,90.527,-55.89,90.527,-55.89Z" /></g></g></g></g></g></g></g></g><g id="i0"><g transform="translate(310,250)"><animateTransform repeatCount="indefinite" type="translate" attributeName="transform" dur="1s" begin="0s" calcMode="spline" values="310 250; 310 251; 310 249; 310 250; 310 251; 310 249; 310 250; 310 251; 310 249; 310 250; 310 251; 310 249; 310 250; 310 251; 310 249; 310 250; 310 251; 310 249; 310 250; 310 251; 310 249; 310 250; 310 251; 310 249; 310 250; 310 251; 310 249; 310 250; 310 251; 310 249; 310 250" keyTimes="0; 0.033333; 0.066667; 0.1; 0.133333; 0.166667; 0.2; 0.233333; 0.266667; 0.3; 0.333333; 0.366667; 0.4; 0.433333; 0.466667; 0.5; 0.533333; 0.566667; 0.6; 0.633333; 0.666667; 0.7; 0.733333; 0.766667; 0.8; 0.833333; 0.866667; 0.9; 0.933333; 0.966667; 1" keySplines="0.333 0 0.667 1; 0.333 0 0.667 1; 0.333 0 0.667 1; 0.333 0 0.667 1; 0.333 0 0.667 1; 0.333 0 0.667 1; 0.333 0 0.667 1; 0.333 0 0.667 1; 0.333 0 0.667 1; 0.333 0 0.667 1; 0.333 0 0.667 1; 0.333 0 0.667 1; 0.333 0 0.667 1; 0.333 0 0.667 1; 0.333 0 0.667 1; 0.333 0 0.667 1; 0.333 0 0.667 1; 0.333 0 0.667 1; 0.333 0 0.667 1; 0.333 0 0.667 1; 0.333 0 0.667 1; 0.333 0 0.667 1; 0.333 0 0.667 1; 0.333 0 0.667 1; 0.333 0 0.667 1; 0.333 0 0.667 1; 0.333 0 0.667 1; 0.333 0 0.667 1; 0.333 0 0.667 1; 0.333 0 0.667 1" fill="freeze" /><g transform="scale(1,1) translate(-256,-256)"><g id="i7"><g transform="translate(256,256)"><g transform="scale(1,1)"><animateTransform repeatCount="indefinite" type="scale" attributeName="transform" dur="1s" begin="0s" calcMode="spline" values="1 1; 0.8 1; 1.2 1; 1 1; 0.8 1; 1.2 1; 1 1; 0.8 1; 1.2 1; 1 1; 0.8 1; 1.2 1; 1 1; 0.8 1; 1.2 1; 1 1" keyTimes="0; 0.066667; 0.133333; 0.2; 0.266667; 0.333333; 0.4; 0.466667; 0.533333; 0.6; 0.666667; 0.733333; 0.8; 0.866667; 0.933333; 1" keySplines="0.333 0 0.667 1; 0.333 0 0.667 1; 0.333 0 0.667 1; 0.333 0 0.667 1; 0.333 0 0.667 1; 0.333 0 0.667 1; 0.333 0 0.667 1; 0.333 0 0.667 1; 0.333 0 0.667 1; 0.333 0 0.667 1; 0.333 0 0.667 1; 0.333 0 0.667 1; 0.333 0 0.667 1; 0.333 0 0.667 1; 0.333 0 0.667 1" fill="freeze" /><g transform="translate(-256,-256)"><g id="i2" transform="matrix(1,0,0,1,384,140.312)"><path fill="#ffdc50" d="M127.83,-60.712C121.58,-26.902,98.87,91.168,85.36,97.918C80.88,100.158,68.92,101.828,52.55,102.788C52.55,102.788,48.765,104.982,48.765,104.982C48.765,104.982,44.412,104.335,44.412,104.335C44.412,104.335,-41.588,103.747,-41.588,103.747C-41.588,103.747,-112.647,100.688,-112.647,100.688C-112.647,100.688,-128,89.098,-128,89.098C-128,89.098,-128,53.808,-128,53.808C-128,53.808,-30.96,-104.982,120.63,-72.072C125.69,-70.972,128.77,-65.802,127.83,-60.712Z" /></g><g id="i3" transform="matrix(1,0,0,1,267.99,230.6)"><path fill="#ffdc50" d="M-11.99,-1.19C-11.99,-1.19,11.99,0.01,11.99,0.01C11.99,0.01,-2.75,0.05,-2.75,0.05C-2.75,0.05,-2.78,1.19,-2.78,1.19C-6,0.44,-9.07,-0.36,-11.99,-1.19Z" /></g><g id="i4" transform="matrix(1,0,0,1,435.13,241.43)"><path fill="#ffdc50" d="M1.42,1.67C1.36,1.67,1.3,1.68,1.24,1.68C0.16,0.27,-0.74,-0.86,-1.42,-1.68C-1.42,-1.68,1.42,1.67,1.42,1.67Z" /></g><g id="i5" transform="matrix(1,0,0,1,380.034,161.105)"><path fill="#ffbe46" d="M124.035,-41.493C122.896,-35.882,121.687,-30.035,120.416,-24.046C81.842,-28.643,-23.851,-34.994,-108.647,18.107C-13.739,3.601,68.641,23.645,106.318,35.571C104.636,41.732,102.956,47.477,101.298,52.626C63,40.667,-25.871,19.253,-124.035,38.775C-124.035,38.775,-124.035,33.02,-124.035,33.02C-124.035,33.02,-111.01,11.767,-87.135,-13.561C-2.94,-52.626,88.797,-46.081,124.035,-41.493Z" /></g></g></g></g></g></g></g></g><g id="i0"><g transform="translate(310,250)"><animateTransform repeatCount="indefinite" type="translate" attributeName="transform" dur="1s" begin="0s" calcMode="spline" values="310 250; 310 251; 310 249; 310 250; 310 251; 310 249; 310 250; 310 251; 310 249; 310 250; 310 251; 310 249; 310 250; 310 251; 310 249; 310 250; 310 251; 310 249; 310 250; 310 251; 310 249; 310 250; 310 251; 310 249; 310 250; 310 251; 310 249; 310 250; 310 251; 310 249; 310 250" keyTimes="0; 0.033333; 0.066667; 0.1; 0.133333; 0.166667; 0.2; 0.233333; 0.266667; 0.3; 0.333333; 0.366667; 0.4; 0.433333; 0.466667; 0.5; 0.533333; 0.566667; 0.6; 0.633333; 0.666667; 0.7; 0.733333; 0.766667; 0.8; 0.833333; 0.866667; 0.9; 0.933333; 0.966667; 1" keySplines="0.333 0 0.667 1; 0.333 0 0.667 1; 0.333 0 0.667 1; 0.333 0 0.667 1; 0.333 0 0.667 1; 0.333 0 0.667 1; 0.333 0 0.667 1; 0.333 0 0.667 1; 0.333 0 0.667 1; 0.333 0 0.667 1; 0.333 0 0.667 1; 0.333 0 0.667 1; 0.333 0 0.667 1; 0.333 0 0.667 1; 0.333 0 0.667 1; 0.333 0 0.667 1; 0.333 0 0.667 1; 0.333 0 0.667 1; 0.333 0 0.667 1; 0.333 0 0.667 1; 0.333 0 0.667 1; 0.333 0 0.667 1; 0.333 0 0.667 1; 0.333 0 0.667 1; 0.333 0 0.667 1; 0.333 0 0.667 1; 0.333 0 0.667 1; 0.333 0 0.667 1; 0.333 0 0.667 1; 0.333 0 0.667 1" fill="freeze" /><g transform="scale(1,1) translate(-256,-256)"><g id="i8"><g transform="translate(256,256)"><g transform="scale(1,1)"><animateTransform repeatCount="indefinite" type="scale" attributeName="transform" dur="1s" begin="0s" calcMode="spline" values="1 1; 0.8 1; 1.2 1; 1 1; 0.8 1; 1.2 1; 1 1; 0.8 1; 1.2 1; 1 1; 0.8 1; 1.2 1; 1 1; 0.8 1; 1.2 1; 1 1" keyTimes="0; 0.066667; 0.133333; 0.2; 0.266667; 0.333333; 0.4; 0.466667; 0.533333; 0.6; 0.666667; 0.733333; 0.8; 0.866667; 0.933333; 1" keySplines="0.333 0 0.667 1; 0.333 0 0.667 1; 0.333 0 0.667 1; 0.333 0 0.667 1; 0.333 0 0.667 1; 0.333 0 0.667 1; 0.333 0 0.667 1; 0.333 0 0.667 1; 0.333 0 0.667 1; 0.333 0 0.667 1; 0.333 0 0.667 1; 0.333 0 0.667 1; 0.333 0 0.667 1; 0.333 0 0.667 1; 0.333 0 0.667 1" fill="freeze" /><g transform="translate(-256,-256)"><g id="i4" transform="matrix(1,0,0,1,363.63,340.465)"><path fill="#ffdc50" d="M18.08,58.765C-18.42,76.025,-40.55,94.075,-52.37,105.715C-56.58,109.855,-63.78,107.415,-64.34,101.545C-67.83,65.585,-81.17,38.915,-81.17,38.915C-81.17,-1.025,-92.24,-33.585,-100.06,-51.595C-100.06,-51.595,-98.42,-108.675,-98.42,-108.675C-98.42,-108.675,-98.39,-109.815,-98.39,-109.815C-98.39,-109.815,-83.65,-109.855,-83.65,-109.855C-83.65,-109.855,68.81,-102.235,68.81,-102.235C68.81,-102.235,69.81,-101.045,69.81,-101.045C69.81,-101.045,70.08,-100.715,70.08,-100.715C70.76,-99.895,71.66,-98.765,72.74,-97.355C79.48,-88.505,92.82,-68.905,95.27,-49.305C100.06,-10.985,79.63,29.665,18.08,58.765Z" /></g><g id="i5" transform="matrix(1,0,0,1,370.502,286.5)"><path fill="#ffbe46" d="M61.934,-48.267C61.934,-48.267,85.091,-21.802,88.399,4.664C90.527,21.686,87.641,39.165,78.422,55.89C54.93,32.121,-8.275,-26.052,-90.527,-55.89C-90.527,-55.89,61.934,-48.267,61.934,-48.267Z" /></g></g></g></g></g></g></g></g><g id="i0"><g transform="translate(310,250)"><animateTransform repeatCount="indefinite" type="translate" attributeName="transform" dur="1s" begin="0s" calcMode="spline" values="310 250; 310 251; 310 249; 310 250; 310 251; 310 249; 310 250; 310 251; 310 249; 310 250; 310 251; 310 249; 310 250; 310 251; 310 249; 310 250; 310 251; 310 249; 310 250; 310 251; 310 249; 310 250; 310 251; 310 249; 310 250; 310 251; 310 249; 310 250; 310 251; 310 249; 310 250" keyTimes="0; 0.033333; 0.066667; 0.1; 0.133333; 0.166667; 0.2; 0.233333; 0.266667; 0.3; 0.333333; 0.366667; 0.4; 0.433333; 0.466667; 0.5; 0.533333; 0.566667; 0.6; 0.633333; 0.666667; 0.7; 0.733333; 0.766667; 0.8; 0.833333; 0.866667; 0.9; 0.933333; 0.966667; 1" keySplines="0.333 0 0.667 1; 0.333 0 0.667 1; 0.333 0 0.667 1; 0.333 0 0.667 1; 0.333 0 0.667 1; 0.333 0 0.667 1; 0.333 0 0.667 1; 0.333 0 0.667 1; 0.333 0 0.667 1; 0.333 0 0.667 1; 0.333 0 0.667 1; 0.333 0 0.667 1; 0.333 0 0.667 1; 0.333 0 0.667 1; 0.333 0 0.667 1; 0.333 0 0.667 1; 0.333 0 0.667 1; 0.333 0 0.667 1; 0.333 0 0.667 1; 0.333 0 0.667 1; 0.333 0 0.667 1; 0.333 0 0.667 1; 0.333 0 0.667 1; 0.333 0 0.667 1; 0.333 0 0.667 1; 0.333 0 0.667 1; 0.333 0 0.667 1; 0.333 0 0.667 1; 0.333 0 0.667 1; 0.333 0 0.667 1" fill="freeze" /><g transform="scale(1,1) translate(-256,-256)"><g id="i9"><g transform="translate(256,256)"><g transform="scale(1,1)"><animateTransform repeatCount="indefinite" type="scale" attributeName="transform" dur="1s" begin="0s" calcMode="spline" values="1 1; 1 1; 1 0.98; 1 1.02; 1 1; 1 1" keyTimes="0; 0.133333; 0.333333; 0.533333; 0.733333; 1" keySplines="0 0 1 1; 0.333 0 0.667 1; 0.333 0 0.667 1; 0.333 0 0.667 1; 0 0 1 1" fill="freeze" /><g transform="translate(-256,-256)"><g id="i5" transform="matrix(1,0,0,1,256.001,132.095)"><path fill="#b49f77" d="M-0.001,48.796C-1.948,48.796,-3.662,47.521,-4.222,45.651C-21.289,-11.234,-55.413,-40.163,-55.757,-40.447C-57.626,-42.006,-57.876,-44.79,-56.317,-46.659C-54.749,-48.528,-51.974,-48.77,-50.105,-47.219C-48.735,-46.082,-18.6,-20.53,0.001,30.403C18.601,-20.528,48.736,-46.081,50.105,-47.219C51.992,-48.796,54.749,-48.52,56.317,-46.659C57.876,-44.79,57.627,-42.007,55.757,-40.447C55.412,-40.162,21.236,-11.062,4.222,45.651C3.66,47.522,1.946,48.796,-0.001,48.796Z" /></g></g></g></g></g></g></g></g><g id="i0"><g transform="translate(310,250)"><animateTransform repeatCount="indefinite" type="translate" attributeName="transform" dur="1s" begin="0s" calcMode="spline" values="310 250; 310 251; 310 249; 310 250; 310 251; 310 249; 310 250; 310 251; 310 249; 310 250; 310 251; 310 249; 310 250; 310 251; 310 249; 310 250; 310 251; 310 249; 310 250; 310 251; 310 249; 310 250; 310 251; 310 249; 310 250; 310 251; 310 249; 310 250; 310 251; 310 249; 310 250" keyTimes="0; 0.033333; 0.066667; 0.1; 0.133333; 0.166667; 0.2; 0.233333; 0.266667; 0.3; 0.333333; 0.366667; 0.4; 0.433333; 0.466667; 0.5; 0.533333; 0.566667; 0.6; 0.633333; 0.666667; 0.7; 0.733333; 0.766667; 0.8; 0.833333; 0.866667; 0.9; 0.933333; 0.966667; 1" keySplines="0.333 0 0.667 1; 0.333 0 0.667 1; 0.333 0 0.667 1; 0.333 0 0.667 1; 0.333 0 0.667 1; 0.333 0 0.667 1; 0.333 0 0.667 1; 0.333 0 0.667 1; 0.333 0 0.667 1; 0.333 0 0.667 1; 0.333 0 0.667 1; 0.333 0 0.667 1; 0.333 0 0.667 1; 0.333 0 0.667 1; 0.333 0 0.667 1; 0.333 0 0.667 1; 0.333 0 0.667 1; 0.333 0 0.667 1; 0.333 0 0.667 1; 0.333 0 0.667 1; 0.333 0 0.667 1; 0.333 0 0.667 1; 0.333 0 0.667 1; 0.333 0 0.667 1; 0.333 0 0.667 1; 0.333 0 0.667 1; 0.333 0 0.667 1; 0.333 0 0.667 1; 0.333 0 0.667 1; 0.333 0 0.667 1" fill="freeze" /><g transform="scale(1,1) translate(-256,-256)"><g id="i4" transform="matrix(1,0,0,1,256,255.877)"><path fill="#a58c69" d="M0,88.218C-4.876,88.218,-8.822,84.272,-8.822,79.396C-8.822,79.396,-8.822,-79.396,-8.822,-79.396C-8.822,-84.272,-4.876,-88.218,0,-88.218C4.876,-88.218,8.822,-84.272,8.822,-79.396C8.822,-79.396,8.822,79.396,8.822,79.396C8.822,84.272,4.877,88.218,0,88.218Z" /></g><g id="i5" transform="matrix(1,0,0,1,256,229.411)"><path fill="#b49f77" d="M0,44.109C0,44.109,0,44.109,0,44.109C-9.745,44.109,-17.644,36.21,-17.644,26.465C-17.644,26.465,-17.644,-26.466,-17.644,-26.466C-17.644,-36.211,-9.745,-44.109,0,-44.109C9.745,-44.109,17.644,-36.211,17.644,-26.466C17.644,-26.466,17.644,26.465,17.644,26.465C17.644,36.21,9.744,44.109,0,44.109Z" /></g></g></g></g></svg>