<svg width="42" height="48" viewBox="0 0 42 48" fill="none" xmlns="http://www.w3.org/2000/svg">
<path d="M18.7516 0C17.5133 0 16.5016 1.01172 16.5016 2.25V11.0117C16.4937 11.0156 16.4781 11.0273 16.4742 11.0352L10.65 16.1719C9.52499 17.1602 8.75546 18.5234 8.48593 20.0039L7.17343 27.1367C6.57968 30.3594 4.86874 33.3086 2.36484 35.4297L0.798432 36.7578C0.317963 37.1641 0.0328068 37.7461 0.00155682 38.3789C-0.0218812 39.0078 0.220307 39.6211 0.661713 40.0664L7.93515 47.3398C8.38046 47.7812 8.94687 48 9.52499 48C10.0289 48 10.5406 47.8359 10.9508 47.4883L22.4547 38.0781C22.6812 37.8906 22.9078 37.7031 23.1148 37.5H39.7516C40.9898 37.5 42.0016 36.4883 42.0016 35.25V2.25C42.0016 1.01172 40.9898 0 39.7516 0H18.7516ZM18.7516 1.5H39.7516C40.1656 1.5 40.5016 1.83594 40.5016 2.25V35.25C40.5016 35.6641 40.1656 36 39.7516 36H24.5562C25.7359 34.5898 26.6656 32.9844 27.2945 31.2383L29.7984 24.3086C30.0328 23.6641 29.9586 22.9492 29.5992 22.3633C29.5016 22.207 29.3883 22.0664 29.2594 21.9453C28.9156 21.5938 28.4547 21.3672 27.9547 21.3086L27.8648 21.3008C26.1227 21.082 24.4078 21.7422 23.2594 23.0625L20.1695 26.6172C19.5602 27.3164 18.8258 27.8789 18.0016 28.2656V2.25C18.0016 1.83594 18.3375 1.5 18.7516 1.5ZM38.2516 3C37.8375 3 37.5016 3.33594 37.5016 3.75V6.75C37.5016 7.16406 37.8375 7.5 38.2516 7.5C38.6656 7.5 39.0016 7.16406 39.0016 6.75V3.75C39.0016 3.33594 38.6656 3 38.2516 3ZM38.2516 9C37.8375 9 37.5016 9.33594 37.5016 9.75V33.75C37.5016 34.1641 37.8375 34.5 38.2516 34.5C38.6656 34.5 39.0016 34.1641 39.0016 33.75V9.75C39.0016 9.33594 38.6656 9 38.2516 9ZM16.5016 13.0039V28.8008L14.2984 29.3789C13.982 29.4609 13.7711 29.7305 13.7477 30.0273C13.7359 30.1133 13.7398 30.2031 13.7633 30.293C13.8687 30.6992 14.2828 30.9297 14.6773 30.8242L16.5016 30.3477L17.193 30.1641C17.4703 30.0898 17.7398 30 18.0016 29.9023C19.2672 29.4219 20.4 28.6367 21.3023 27.6016L24.3922 24.0469C25.2164 23.1094 26.4391 22.6367 27.6773 22.7852L27.775 22.8008C27.9977 22.832 28.2008 22.957 28.3219 23.1523C28.443 23.3477 28.4625 23.582 28.3883 23.7969L25.8844 30.7266C25.1656 32.7227 24.0094 34.5312 22.5094 36C22.1852 36.3281 21.857 36.6289 21.5055 36.9141L20.7906 37.5L12.9312 43.9336C12.8961 43.8438 12.8414 43.7539 12.7672 43.6797C12.4742 43.3867 12.0016 43.3867 11.7086 43.6797L10.6422 44.7461C10.3492 45.0391 10.3492 45.5117 10.6422 45.8008L10.0055 46.3281C9.70468 46.5742 9.27109 46.5547 9.00156 46.2852L1.72031 39C1.56796 38.8516 1.49374 38.6562 1.50156 38.4375C1.50937 38.2266 1.60703 38.0391 1.76328 37.8984L2.47812 37.2969C2.47031 37.5 2.53671 37.6953 2.68515 37.8516C2.8375 37.9961 3.03281 38.0703 3.22031 38.0703C3.41171 38.0703 3.60312 37.9961 3.75156 37.8516L4.81015 36.7891C5.10312 36.4961 5.10312 36.0234 4.81015 35.7305C4.70468 35.625 4.56796 35.5664 4.43515 35.5352C6.60312 33.3086 8.07968 30.4805 8.64999 27.4023L9.33749 23.6406L9.95468 20.2773C10.1695 19.125 10.7711 18.0664 11.65 17.2969L16.5016 13.0039ZM6.93515 38.1602C6.73984 38.1602 6.54843 38.2344 6.39999 38.3789L5.3414 39.4414C5.04843 39.7344 5.04843 40.207 5.3414 40.5C5.48593 40.6484 5.67734 40.7227 5.87265 40.7227C6.06406 40.7227 6.25546 40.6484 6.39999 40.5L7.4625 39.4414C7.75546 39.1484 7.75546 38.6719 7.4625 38.3789C7.31406 38.2344 7.12656 38.1602 6.93515 38.1602ZM9.58359 40.8125C9.39218 40.8125 9.20078 40.8828 9.05234 41.0312L7.99375 42.0898C7.70078 42.3828 7.70078 42.8594 7.99375 43.1523C8.13828 43.3008 8.32968 43.3711 8.52109 43.3711C8.7164 43.3711 8.90781 43.2969 9.05234 43.1523L10.1148 42.0938C10.4078 41.8008 10.4078 41.3242 10.1148 41.0312C9.9664 40.8867 9.77499 40.8125 9.58359 40.8125Z" fill="#0EC742"/>
</svg>
